<svg width="74" height="44" viewBox="0 0 74 44" fill="none" xmlns="http://www.w3.org/2000/svg">
<circle cx="2.5" cy="2.5" r="2.5" fill="white"/>
<circle cx="25.5" cy="28.5" r="2.5" fill="white"/>
<circle cx="71.5" cy="28.5" r="2.5" fill="white"/>
<path d="M51 28.5C51 29.8807 49.8807 31 48.5 31C47.1193 31 46 29.8807 46 28.5C46 27.1193 47.1193 26 48.5 26C49.8807 26 51 27.1193 51 28.5Z" fill="white"/>
<circle cx="2.5" cy="15.5" r="2.5" fill="white"/>
<circle cx="2.5" cy="28.5" r="2.5" fill="white"/>
<circle cx="71.5" cy="15.5" r="2.5" fill="white"/>
<circle cx="25.5" cy="15.5" r="2.5" fill="white"/>
<circle cx="48.5" cy="15.5" r="2.5" fill="white"/>
<circle cx="71.5" cy="2.5" r="2.5" fill="white"/>
<circle cx="25.5" cy="2.5" r="2.5" fill="white"/>
<circle cx="48.5" cy="2.5" r="2.5" fill="white"/>
<circle cx="25.5" cy="41.5" r="2.5" fill="white"/>
<circle cx="71.5" cy="41.5" r="2.5" fill="white"/>
<circle cx="48.5" cy="41.5" r="2.5" fill="white"/>
<circle cx="2.5" cy="41.5" r="2.5" fill="white"/>
</svg>
