<svg width="22" height="22" viewBox="0 0 22 22" fill="none" xmlns="http://www.w3.org/2000/svg">
<path fill-rule="evenodd" clip-rule="evenodd" d="M10.4667 11L3 18L3.68394 18.7295L11.1977 11.6854L19 19L19.6839 18.2705L11.9288 11L19.6839 3.72954L19 3L11.1977 10.3146L3.68394 3.27046L3 4L10.4667 11Z" fill="#FDF4F4"/>
<path d="M3 18L1.97409 16.9057L0.879783 17.9316L1.90569 19.0259L3 18ZM10.4667 11L11.4926 12.0943L12.6598 11L11.4926 9.90569L10.4667 11ZM3.68394 18.7295L2.58963 19.7554L3.61555 20.8498L4.70985 19.8238L3.68394 18.7295ZM11.1977 11.6854L12.2236 10.5911L11.1977 9.62927L10.1718 10.5911L11.1977 11.6854ZM19 19L17.9741 20.0943L19.0684 21.1202L20.0943 20.0259L19 19ZM19.6839 18.2705L20.7782 19.2964L21.8042 18.2021L20.7099 17.1762L19.6839 18.2705ZM11.9288 11L10.9029 9.90569L9.73561 11L10.9029 12.0943L11.9288 11ZM19.6839 3.72954L20.7099 4.82384L21.8042 3.79793L20.7782 2.70363L19.6839 3.72954ZM19 3L20.0943 1.97409L19.0684 0.879782L17.9741 1.90569L19 3ZM11.1977 10.3146L10.1718 11.4089L11.1977 12.3707L12.2236 11.4089L11.1977 10.3146ZM3.68394 3.27046L4.70985 2.17616L3.61555 1.15025L2.58964 2.24455L3.68394 3.27046ZM3 4L1.90569 2.97409L0.879782 4.06839L1.97409 5.09431L3 4ZM4.02591 19.0943L11.4926 12.0943L9.44076 9.90569L1.97409 16.9057L4.02591 19.0943ZM4.77825 17.7036L4.09431 16.9741L1.90569 19.0259L2.58963 19.7554L4.77825 17.7036ZM10.1718 10.5911L2.65803 17.6352L4.70985 19.8238L12.2236 12.7797L10.1718 10.5911ZM20.0259 17.9057L12.2236 10.5911L10.1718 12.7797L17.9741 20.0943L20.0259 17.9057ZM18.5896 17.2446L17.9057 17.9741L20.0943 20.0259L20.7782 19.2964L18.5896 17.2446ZM10.9029 12.0943L18.658 19.3648L20.7099 17.1762L12.9547 9.90569L10.9029 12.0943ZM18.658 2.63523L10.9029 9.90569L12.9547 12.0943L20.7099 4.82384L18.658 2.63523ZM17.9057 4.02591L18.5896 4.75545L20.7782 2.70363L20.0943 1.97409L17.9057 4.02591ZM12.2236 11.4089L20.0259 4.09431L17.9741 1.90569L10.1718 9.22033L12.2236 11.4089ZM2.65803 4.36477L10.1718 11.4089L12.2236 9.22033L4.70985 2.17616L2.65803 4.36477ZM4.09431 5.02591L4.77825 4.29637L2.58964 2.24455L1.90569 2.97409L4.09431 5.02591ZM11.4926 9.90569L4.02591 2.90569L1.97409 5.09431L9.44076 12.0943L11.4926 9.90569Z" fill="#FCF8F8"/>
</svg>
