<svg width="249" height="270" viewBox="0 0 249 270" fill="none" xmlns="http://www.w3.org/2000/svg">
<path d="M18 30C18 13.4315 31.4315 0 48 0H219C235.569 0 249 13.4315 249 30V240C249 256.569 235.569 270 219 270H48C31.4315 270 18 256.569 18 240V30Z" fill="white"/>
<line x1="50" y1="40.5" x2="201" y2="40.5" stroke="#957B7B" stroke-width="5"/>
<line x1="50.0329" y1="62.5002" x2="126.033" y2="63.5002" stroke="#957B7B" stroke-width="5"/>
<ellipse cx="18" cy="124.5" rx="18" ry="18.5" fill="#C4C4C4"/>
<ellipse cx="18" cy="52.5" rx="18" ry="18.5" fill="#5EAD42"/>
<line x1="50" y1="113.5" x2="201" y2="113.5" stroke="#957B7B" stroke-width="5"/>
<line x1="50.0329" y1="132.5" x2="126.033" y2="133.5" stroke="#957B7B" stroke-width="5"/>
<ellipse cx="18" cy="196.5" rx="18" ry="18.5" fill="#C4C4C4"/>
<line x1="50" y1="185.5" x2="201" y2="185.5" stroke="#957B7B" stroke-width="5"/>
<line x1="50.0329" y1="204.5" x2="126.033" y2="205.5" stroke="#957B7B" stroke-width="5"/>
</svg>
