<svg width="33" height="25" viewBox="0 0 33 25" fill="none" xmlns="http://www.w3.org/2000/svg">
<path fill-rule="evenodd" clip-rule="evenodd" d="M2 3H31V2H2V3ZM31 13H2V12H31V13ZM31 23H2V22H31V23Z" fill="black"/>
<path d="M31 3V4.5H32.5V3H31ZM2 3H0.5V4.5H2V3ZM31 2H32.5V0.5H31V2ZM2 2V0.5H0.5V2H2ZM2 13H0.5V14.5H2V13ZM31 13V14.5H32.5V13H31ZM2 12V10.5H0.5V12H2ZM31 12H32.5V10.5H31V12ZM2 23H0.5V24.5H2V23ZM31 23V24.5H32.5V23H31ZM2 22V20.5H0.5V22H2ZM31 22H32.5V20.5H31V22ZM31 1.5H2V4.5H31V1.5ZM29.5 2V3H32.5V2H29.5ZM2 3.5H31V0.5H2V3.5ZM3.5 3V2H0.5V3H3.5ZM2 14.5H31V11.5H2V14.5ZM0.5 12V13H3.5V12H0.5ZM31 10.5H2V13.5H31V10.5ZM32.5 13V12H29.5V13H32.5ZM2 24.5H31V21.5H2V24.5ZM0.5 22V23H3.5V22H0.5ZM31 20.5H2V23.5H31V20.5ZM32.5 23V22H29.5V23H32.5Z" fill="black"/>
</svg>
